<?xml version="1.0" encoding="utf-8"?>
<svg viewBox="30.048 15.91 134.092 212.09" width="134.092" height="212.09" xmlns="http://www.w3.org/2000/svg">
  <path d="M 30.048 94.83 C 31.898 97.38 47.498 102.19 70.768 107.2 C 94.038 111.66 118.238 129.27 137.058 123.84 C 149.788 120.16 163.598 87.37 163.598 82.5 L 163.598 82 C 163.598 78.6 161.048 75.87 156.718 73.6 C 138.968 64.53 135.608 61.19 129.028 63 C 94.868 72.43 34.558 67.61 30.048 94.83 Z" style="fill-rule: evenodd; fill: rgb(72, 76, 137);" transform="matrix(1, 0, 0, 1, -1.4210854715202004e-14, 0)"/>
  <path d="M 30.048 161.41 C 31.898 164 47.498 168.77 70.768 173.79 C 96.768 178.53 119.378 193.98 138.208 188.54 C 150.938 184.86 163.598 153.96 163.598 149.08 L 163.598 148.6 C 163.598 145.21 161.048 142.47 156.718 140.21 C 143.178 133.01 125.288 125.08 118.718 126.89 C 84.498 136.3 38.758 138.37 30.048 161.41 Z" style="fill-rule: evenodd; fill: rgb(72, 76, 137);" transform="matrix(1, 0, 0, 1, -1.4210854715202004e-14, 0)"/>
  <path d="M30.36,109.14v.48h0A3.73,3.73,0,0,1,30.36,109.14Z" style="fill:#555;fill-rule:evenodd" transform="matrix(1, 0, 0, 1, -1.4210854715202004e-14, 0)"/>
  <path d="M138.66,28.78C107.2,37.87,57.29,43,30.4,43h0V94.35a.8.8,0,0,0,.19.48c18.35,0,75-6,109.18-15.4a129,129,0,0,0,17.49-5.81c4.18-1.88,6.88-3.86,6.88-5.92V15.91C164.1,20.79,151.39,25.11,138.66,28.78Z" style="fill-rule: evenodd; fill: rgb(119, 123, 179);" transform="matrix(1, 0, 0, 1, -1.4210854715202004e-14, 0)"/>
  <path d="M138.66,95.37c-18.83,5.43-44.24,9.47-67.39,11.83-15.54,1.59-30.06,2.42-40.87,2.42h0v51.31a.8.8,0,0,0,.19.48c18.35,0,75-6,109.18-15.39a130.38,130.38,0,0,0,17.49-5.81c4.18-1.89,6.88-3.86,6.88-5.92V82.5C164.1,87.37,151.39,91.69,138.66,95.37Z" style="fill-rule: evenodd; fill: rgb(119, 123, 179);" transform="matrix(1, 0, 0, 1, -1.4210854715202004e-14, 0)"/>
  <path d="M138.66,162c-18.83,5.43-44.24,9.46-67.39,11.83-15.56,1.59-30.1,2.42-40.91,2.42V228c18.16,0,75.1-5.95,109.37-15.39,12.63-3.48,24.37-7.44,24.37-11.74V149.08C164.1,154,151.39,158.28,138.66,162Z" style="fill-rule: evenodd; fill: rgb(119, 123, 179);" transform="matrix(1, 0, 0, 1, -1.4210854715202004e-14, 0)"/>
  <path d="M 30.048 94.83 C 31.898 97.38 47.498 102.19 70.768 107.2 C 94.038 111.66 118.238 129.27 137.058 123.84 C 149.788 120.16 163.598 87.37 163.598 82.5 L 163.598 82 C 163.598 78.6 161.048 75.87 156.718 73.6 C 138.968 64.53 135.608 61.19 129.028 63 C 94.868 72.43 34.558 67.61 30.048 94.83 Z" style="fill-rule: evenodd; fill: rgb(72, 76, 137);" transform="matrix(1, 0, 0, 1, -1.4210854715202004e-14, 0)"/>
  <path d="M 30.048 161.41 C 31.898 164 47.498 168.77 70.768 173.79 C 96.768 178.53 119.378 193.98 138.208 188.54 C 150.938 184.86 163.598 153.96 163.598 149.08 L 163.598 148.6 C 163.598 145.21 161.048 142.47 156.718 140.21 C 143.178 133.01 125.288 125.08 118.718 126.89 C 84.498 136.3 38.758 138.37 30.048 161.41 Z" style="fill-rule: evenodd; fill: rgb(72, 76, 137);" transform="matrix(1, 0, 0, 1, -1.4210854715202004e-14, 0)"/>
  <path d="M30.36,109.14v.48h0A3.73,3.73,0,0,1,30.36,109.14Z" style="fill:#555;fill-rule:evenodd" transform="matrix(1, 0, 0, 1, -1.4210854715202004e-14, 0)"/>
  <path d="M138.66,28.78C107.2,37.87,57.29,43,30.4,43h0V94.35a.8.8,0,0,0,.19.48c18.35,0,75-6,109.18-15.4a129,129,0,0,0,17.49-5.81c4.18-1.88,6.88-3.86,6.88-5.92V15.91C164.1,20.79,151.39,25.11,138.66,28.78Z" style="fill-rule: evenodd; fill: rgb(119, 123, 179);" transform="matrix(1, 0, 0, 1, -1.4210854715202004e-14, 0)"/>
  <path d="M138.66,95.37c-18.83,5.43-44.24,9.47-67.39,11.83-15.54,1.59-30.06,2.42-40.87,2.42h0v51.31a.8.8,0,0,0,.19.48c18.35,0,75-6,109.18-15.39a130.38,130.38,0,0,0,17.49-5.81c4.18-1.89,6.88-3.86,6.88-5.92V82.5C164.1,87.37,151.39,91.69,138.66,95.37Z" style="fill-rule: evenodd; fill: rgb(119, 123, 179);" transform="matrix(1, 0, 0, 1, -1.4210854715202004e-14, 0)"/>
  <path d="M138.66,162c-18.83,5.43-44.24,9.46-67.39,11.83-15.56,1.59-30.1,2.42-40.91,2.42V228c18.16,0,75.1-5.95,109.37-15.39,12.63-3.48,24.37-7.44,24.37-11.74V149.08C164.1,154,151.39,158.28,138.66,162Z" style="fill-rule: evenodd; fill: rgb(119, 123, 179);" transform="matrix(1, 0, 0, 1, -1.4210854715202004e-14, 0)"/>
</svg>
